<svg xmlns="http://www.w3.org/2000/svg" xmlns:xlink="http://www.w3.org/1999/xlink" viewBox="0 0 2840.63 633.7"><defs><style>.cls-1,.cls-2{opacity:0.39;}.cls-1{fill:url(#linear-gradient);}.cls-2{fill:url(#linear-gradient-2);}</style><linearGradient id="linear-gradient" x1="1423.75" y1="533.78" x2="1423.75" y2="27.27" gradientUnits="userSpaceOnUse"><stop offset="0" stop-color="#ccb588" stop-opacity="0"/><stop offset="0.32" stop-color="#ccb588" stop-opacity="0.01"/><stop offset="0.48" stop-color="#ccb588" stop-opacity="0.05"/><stop offset="0.59" stop-color="#ccb588" stop-opacity="0.11"/><stop offset="0.7" stop-color="#ccb588" stop-opacity="0.2"/><stop offset="0.79" stop-color="#ccb588" stop-opacity="0.32"/><stop offset="0.87" stop-color="#ccb588" stop-opacity="0.47"/><stop offset="0.94" stop-color="#ccb588" stop-opacity="0.63"/><stop offset="1" stop-color="#ccb588" stop-opacity="0.8"/></linearGradient><linearGradient id="linear-gradient-2" x1="1416.88" y1="523.14" x2="1416.88" y2="16.63" gradientUnits="userSpaceOnUse"><stop offset="0.83" stop-color="#ccb588" stop-opacity="0"/><stop offset="1" stop-color="#ccb588" stop-opacity="0.8"/></linearGradient></defs><g id="Layer_2" data-name="Layer 2"><g id="Layer_1-2" data-name="Layer 1"><path class="cls-1" d="M2689.71,624C2859.5,80.68,1423.76,257.88,1423.76,257.88S-12,80.68,157.79,624c0,0-173,59.42-148.56-115.67S324.4,10.64,1423.76,10.64,2813.87,333.23,2838.27,508.32,2689.71,624,2689.71,624Z"/><path class="cls-2" d="M2682.84,613.34C2852.63,70,1416.89,247.24,1416.89,247.24S-18.86,70,150.93,613.34c0,0-173,59.43-148.57-115.66S317.53,0,1416.89,0,2807,322.59,2831.41,497.68,2682.84,613.34,2682.84,613.34Z"/></g></g></svg>