<svg xmlns="http://www.w3.org/2000/svg" xmlns:xlink="http://www.w3.org/1999/xlink" viewBox="0 0 2142.65 477.99"><defs><style>.cls-1,.cls-2{opacity:0.39;}.cls-1{fill:url(#linear-gradient);}.cls-2{fill:url(#linear-gradient-2);}</style><linearGradient id="linear-gradient" x1="1073.91" y1="402.62" x2="1073.91" y2="20.57" gradientUnits="userSpaceOnUse"><stop offset="0" stop-color="#ccb588" stop-opacity="0"/><stop offset="0.24" stop-color="#ccb588" stop-opacity="0.01"/><stop offset="0.39" stop-color="#ccb588" stop-opacity="0.05"/><stop offset="0.51" stop-color="#ccb588" stop-opacity="0.12"/><stop offset="0.62" stop-color="#ccb588" stop-opacity="0.22"/><stop offset="0.71" stop-color="#ccb588" stop-opacity="0.35"/><stop offset="0.81" stop-color="#ccb588" stop-opacity="0.51"/><stop offset="0.89" stop-color="#ccb588" stop-opacity="0.7"/><stop offset="0.97" stop-color="#ccb588" stop-opacity="0.91"/><stop offset="1" stop-color="#ccb588"/></linearGradient><linearGradient id="linear-gradient-2" x1="1068.73" y1="394.6" x2="1068.73" y2="12.54" gradientUnits="userSpaceOnUse"><stop offset="0.83" stop-color="#ccb588" stop-opacity="0"/><stop offset="1" stop-color="#ccb588"/></linearGradient></defs><g id="Layer_2" data-name="Layer 2"><g id="Layer_1-2" data-name="Layer 1"><path class="cls-1" d="M2028.81,470.66c128.07-409.8-954.89-276.14-954.89-276.14S-9,60.86,119,470.66c0,0-130.47,44.83-112.06-87.24S244.69,8,1073.92,8,2122.46,251.35,2140.87,383.42,2028.81,470.66,2028.81,470.66Z"/><path class="cls-2" d="M2023.63,462.64c128.07-409.81-954.89-276.15-954.89-276.15s-1083-133.66-954.9,276.15c0,0-130.47,44.82-112.06-87.25S239.51,0,1068.74,0s1048.54,243.32,1067,375.39S2023.63,462.64,2023.63,462.64Z"/></g></g></svg>