<svg viewBox="0 0 24 24" fill="currentColor" xmlns="http://www.w3.org/2000/svg">
<path d="M13.5043 13.7689C13.0565 14.0674 12.5363 14.2253 12 14.2253C11.4637 14.2253 10.9436 14.0674 10.4957 13.7689L3.11985 8.85149C3.07913 8.82426 3.03917 8.79593 3 8.76651L3 16.8242C3 17.7481 3.74971 18.4812 4.65702 18.4812H19.3429C20.2668 18.4812 21 17.7315 21 16.8242V8.76648C20.9607 8.79597 20.9207 8.82437 20.8799 8.85163L13.5043 13.7689Z"/>
<path d="M3.70488 7.97394L11.0808 12.8914C11.36 13.0775 11.68 13.1706 12 13.1706C12.32 13.1706 12.64 13.0775 12.9192 12.8914L20.2951 7.97394C20.7365 7.67986 21 7.18767 21 6.65646C21 5.74306 20.2569 5 19.3435 5H4.65646C3.7431 5.00004 3 5.7431 3 6.65734C2.99973 6.91792 3.06395 7.17451 3.18694 7.40424C3.30993 7.63397 3.48787 7.82969 3.70488 7.97394Z"/>
</svg>
