<svg viewBox="0 0 24 24" fill="currentColor" xmlns="http://www.w3.org/2000/svg">
<path d="M10.4546 13.5465C8.73652 11.8284 8.34859 10.1103 8.26107 9.422C8.24901 9.3281 8.25872 9.23268 8.28944 9.14313C8.32017 9.05358 8.3711 8.9723 8.43828 8.90559L9.82863 7.51586C9.92794 7.41661 9.99067 7.28661 10.0066 7.1471C10.0225 7.00759 9.99059 6.86682 9.91614 6.74776L7.70245 3.31038C7.62061 3.17937 7.49285 3.08359 7.34415 3.04175C7.19546 2.99992 7.0365 3.01503 6.89835 3.08414L3.34459 4.75783C3.23155 4.81349 3.13826 4.90241 3.07723 5.01264C3.01621 5.12288 2.99038 5.24914 3.00321 5.37449C3.18942 7.14345 3.96062 11.492 8.23407 15.7658C12.5075 20.0395 16.8555 20.8104 18.6253 20.9966C18.7507 21.0095 18.877 20.9836 18.9872 20.9226C19.0974 20.8616 19.1863 20.7683 19.242 20.6552L20.9157 17.1015C20.9846 16.9636 20.9997 16.805 20.9581 16.6566C20.9165 16.5083 20.8212 16.3806 20.6907 16.2986L17.2533 14.0856C17.1343 14.011 16.9936 13.9791 16.8541 13.9948C16.7146 14.0106 16.5845 14.0732 16.4852 14.1725L15.0955 15.5628C14.9602 15.699 14.7696 15.7645 14.5791 15.74C13.8907 15.6525 12.1727 15.2646 10.4546 13.5465Z"/>
<path d="M17.2774 12.6206C17.1128 12.6206 16.9549 12.5552 16.8385 12.4388C16.7221 12.3224 16.6567 12.1646 16.6567 11.9999C16.6536 9.43029 14.5712 7.34788 12.0015 7.34477C11.8369 7.34477 11.6791 7.27938 11.5627 7.16298C11.4463 7.04658 11.3809 6.8887 11.3809 6.72408C11.3809 6.55947 11.4463 6.40159 11.5627 6.28519C11.6791 6.16879 11.8369 6.10339 12.0015 6.10339C15.2568 6.10712 17.8944 8.74474 17.8981 11.9999C17.8981 12.1646 17.8327 12.3224 17.7163 12.4388C17.5999 12.5552 17.442 12.6206 17.2774 12.6206Z"/>
<path d="M20.3809 12.6207C20.2162 12.6207 20.0584 12.5553 19.942 12.4389C19.8256 12.3225 19.7602 12.1646 19.7602 12C19.7555 7.71724 16.2843 4.24603 12.0015 4.24138C11.8369 4.24138 11.6791 4.17599 11.5627 4.05958C11.4463 3.94318 11.3809 3.78531 11.3809 3.62069C11.3809 3.45607 11.4463 3.2982 11.5627 3.1818C11.6791 3.06539 11.8369 3 12.0015 3C16.9699 3.00559 20.996 7.03169 21.0015 12C21.0015 12.1646 20.9362 12.3225 20.8198 12.4389C20.7034 12.5553 20.5455 12.6207 20.3809 12.6207Z"/>
</svg>
