<svg viewBox="0 0 24 24" fill="currentColor" xmlns="http://www.w3.org/2000/svg">
<path d="M12 2C8.13826 2 5 5.15234 5 9.03125C5 10.3438 5.36174 11.6211 6.05004 12.7227L11.5255 21.7233C11.6189 21.8756 11.7589 21.9694 11.9223 21.9928C12.1439 22.0279 12.389 21.9342 12.5173 21.7116L18.0084 12.6289C18.6616 11.5508 19 10.2969 19 9.03125C19 5.15234 15.8617 2 12 2ZM12 12.5469C10.0401 12.5469 8.5 10.9531 8.5 9.03125C8.5 7.09762 10.075 5.51563 12 5.51563C13.925 5.51563 15.5 7.09762 15.5 9.03125C15.5 10.9414 13.9833 12.5469 12 12.5469Z"/>
</svg>
