<svg width="18" height="21" viewBox="0 0 18 21" fill="none" xmlns="http://www.w3.org/2000/svg">
<path d="M10.5043 12.5283C10.0565 12.8268 9.53631 12.9847 9 12.9847C8.46373 12.9847 7.94355 12.8268 7.49573 12.5283L0.119848 7.61089C0.0791298 7.58366 0.0391656 7.55533 0 7.52591L0 15.5836C0 16.5075 0.749707 17.2406 1.65702 17.2406H16.3429C17.2668 17.2406 18 16.4909 18 15.5836V7.52588C17.9607 7.55537 17.9207 7.58377 17.8799 7.61103L10.5043 12.5283Z" fill="#627C5A"/>
<path d="M0.704884 6.73321L8.08077 11.6507C8.35998 11.8368 8.67997 11.9299 8.99997 11.9299C9.31999 11.9299 9.64002 11.8368 9.91923 11.6507L17.2951 6.73321C17.7365 6.43913 18 5.94695 18 5.41573C18 4.50234 17.2569 3.75928 16.3435 3.75928H1.65646C0.743099 3.75931 8.71912e-07 4.50237 8.71912e-07 5.41661C-0.000272946 5.67719 0.0639503 5.93379 0.186942 6.16352C0.309934 6.39325 0.487872 6.58896 0.704884 6.73321Z" fill="#627C5A"/>
</svg>
