<svg width="18" height="19" viewBox="0 0 18 19" fill="none" xmlns="http://www.w3.org/2000/svg">
<g clip-path="url(#clip0_1047_324)">
<path d="M7.45361 11.0465C5.73555 9.32842 5.34761 7.61035 5.2601 6.922C5.24803 6.8281 5.25774 6.73268 5.28847 6.64313C5.3192 6.55358 5.37012 6.4723 5.4373 6.40559L6.82765 5.01586C6.92697 4.91661 6.98969 4.78661 7.00559 4.6471C7.02149 4.50759 6.98961 4.36682 6.91517 4.24776L4.70148 0.810382C4.61963 0.679374 4.49188 0.583592 4.34318 0.541754C4.19448 0.499917 4.03552 0.51503 3.89737 0.584141L0.343614 2.25783C0.230577 2.31349 0.13728 2.40241 0.0762555 2.51264C0.0152307 2.62288 -0.0105995 2.74914 0.00223455 2.87449C0.188441 4.64345 0.959648 8.992 5.2331 13.2658C9.50655 17.5395 13.8545 18.3104 15.6244 18.4966C15.7497 18.5095 15.876 18.4836 15.9862 18.4226C16.0964 18.3616 16.1854 18.2683 16.241 18.1552L17.9147 14.6015C17.9836 14.4636 17.9987 14.305 17.9571 14.1566C17.9155 14.0083 17.8202 13.8806 17.6897 13.7986L14.2523 11.5856C14.1334 11.511 13.9926 11.4791 13.8531 11.4948C13.7136 11.5106 13.5836 11.5732 13.4842 11.6725L12.0945 13.0628C11.9592 13.199 11.7686 13.2645 11.5781 13.24C10.8898 13.1525 9.17168 12.7646 7.45361 11.0465Z" fill="#627C5A"/>
<path d="M14.2755 10.1208C14.1108 10.1208 13.953 10.0554 13.8366 9.93896C13.7202 9.82256 13.6548 9.66468 13.6548 9.50007C13.6517 6.93041 11.5693 4.848 8.9996 4.8449C8.83498 4.8449 8.6771 4.7795 8.5607 4.6631C8.4443 4.5467 8.37891 4.38882 8.37891 4.22421C8.37891 4.05959 8.4443 3.90171 8.5607 3.78531C8.6771 3.66891 8.83498 3.60352 8.9996 3.60352C12.2548 3.60724 14.8924 6.24486 14.8961 9.50007C14.8961 9.66468 14.8308 9.82256 14.7144 9.93896C14.598 10.0554 14.4401 10.1208 14.2755 10.1208Z" fill="#627C5A"/>
<path d="M17.3789 10.1207C17.2143 10.1207 17.0564 10.0553 16.94 9.93889C16.8236 9.82249 16.7582 9.66462 16.7582 9.5C16.7536 5.21724 13.2824 1.74603 8.9996 1.74138C8.83498 1.74138 8.6771 1.67599 8.5607 1.55958C8.4443 1.44318 8.37891 1.28531 8.37891 1.12069C8.37891 0.956073 8.4443 0.798198 8.5607 0.681796C8.6771 0.565394 8.83498 0.5 8.9996 0.5C13.9679 0.505586 17.994 4.53169 17.9996 9.5C17.9996 9.66462 17.9342 9.82249 17.8178 9.93889C17.7014 10.0553 17.5435 10.1207 17.3789 10.1207Z" fill="#627C5A"/>
</g>
<defs>
<clipPath id="clip0_1047_324">
<rect width="18.001" height="17.9998" fill="white" transform="translate(-0.000976562 0.5)"/>
</clipPath>
</defs>
</svg>
