<svg width="28" height="23" viewBox="0 0 28 23" fill="none" xmlns="http://www.w3.org/2000/svg">
<g clip-path="url(#clip0_1047_315)">
<path d="M14 0.5C9.73312 0.5 6.26562 3.96758 6.26562 8.23438C6.26562 9.67813 6.66532 11.0833 7.42582 12.295L13.4757 22.1956C13.5789 22.3632 13.7336 22.4663 13.9141 22.4921C14.1589 22.5307 14.4298 22.4277 14.5715 22.1827L20.6387 12.1918C21.3605 11.0059 21.7344 9.62661 21.7344 8.23438C21.7344 3.96758 18.2669 0.5 14 0.5ZM14 12.1016C11.8345 12.1016 10.1328 10.3484 10.1328 8.23438C10.1328 6.10738 11.873 4.36719 14 4.36719C16.127 4.36719 17.8672 6.10738 17.8672 8.23438C17.8672 10.3356 16.1914 12.1016 14 12.1016Z" fill="#627C5A"/>
<path d="M14 0.5V4.36719C16.127 4.36719 17.8672 6.10738 17.8672 8.23438C17.8672 10.3356 16.1914 12.1016 14 12.1016V22.4996C14.22 22.5047 14.4461 22.3993 14.5715 22.1827L20.6387 12.1918C21.3605 11.0059 21.7344 9.62661 21.7344 8.23438C21.7344 3.96758 18.2669 0.5 14 0.5Z" fill="#627C5A"/>
</g>
<defs>
<clipPath id="clip0_1047_315">
<rect width="26.5179" height="22" fill="white" transform="translate(0.741211 0.5)"/>
</clipPath>
</defs>
</svg>
