<svg width="813" height="813" viewBox="0 0 813 813" fill="none" xmlns="http://www.w3.org/2000/svg">
<rect width="813" height="813" fill="#627045"/>
<path d="M557.991 654.068H287.548" stroke="#EFECE5" stroke-width="28.6941" stroke-linecap="round"/>
<path d="M414.533 328.36V652.892" stroke="#EFECE5" stroke-width="28.6941" stroke-linecap="round"/>
<path d="M479.204 395.383L414.533 452.999" stroke="#EFECE5" stroke-width="28.6941" stroke-linecap="round"/>
<path d="M349.85 451.824L414.521 490.626" stroke="#EFECE5" stroke-width="28.6941" stroke-linecap="round"/>
<path d="M458.67 589.396C484.265 584.3 547.728 560.705 583.861 507.087C624.273 447.119 614.494 385.191 608.848 357.755C601.32 302.099 541.531 188.434 416.892 95.543" stroke="#EFECE5" stroke-width="28.6941" stroke-linecap="round"/>
<path d="M416.874 95.5455C409.819 92.0179 407.229 93.4665 392.761 119.828C378.292 146.19 317.606 247.716 289.072 295.183H311.98L220.348 454.061H255.313L173.688 589.451L366.132 589.451" stroke="#EFECE5" stroke-width="28.6941" stroke-linecap="round" stroke-linejoin="round"/>
</svg>
