<svg  viewBox="0 0 164 36" fill="none" xmlns="http://www.w3.org/2000/svg">
<path d="M25.5135 35H8.71814" stroke="#00270C" stroke-width="2" stroke-linecap="round"/>
<path d="M16.6046 15.2224V34.9287" stroke="#00270C" stroke-width="2" stroke-linecap="round"/>
<path d="M20.6209 19.2921L16.6046 22.7907" stroke="#00270C" stroke-width="2" stroke-linecap="round"/>
<path d="M12.5884 22.7194L16.6047 25.0755" stroke="#00270C" stroke-width="2" stroke-linecap="round"/>
<path d="M19.3453 31.0731C20.9348 30.7637 24.8761 29.3309 27.12 26.0751C29.6297 22.4338 29.0224 18.6734 28.6718 17.0074C28.2043 13.6278 24.4912 6.72588 16.7507 1.08533" stroke="#00270C" stroke-width="2" stroke-linecap="round"/>
<path d="M16.7507 1.08527C16.3126 0.871077 16.1517 0.959033 15.2532 2.55979C14.3547 4.16054 10.5859 10.3254 8.81379 13.2077H10.2365L4.54583 22.8551H6.71725L1.64807 31.0763L13.5995 31.0763" stroke="#00270C" stroke-width="2" stroke-linecap="round" stroke-linejoin="round"/>
<path d="M55.4678 14H50.6952V13.8329C51.1262 13.7942 51.4264 13.7215 51.5959 13.615C51.8962 13.4261 52.0463 13.1646 52.0463 12.8305C52.0463 12.6319 51.9785 12.3655 51.8429 12.0314L51.7194 11.7263L51.0221 10.0119H47.8258L47.4481 11.0144L47.2664 11.4648C47.0485 11.9975 46.9396 12.4164 46.9396 12.7215C46.9396 12.9007 46.9783 13.0678 47.0558 13.2227C47.1381 13.3777 47.2471 13.5036 47.3827 13.6005C47.5715 13.7312 47.8137 13.8087 48.1091 13.8329V14H44.8547V13.8329C45.1114 13.8184 45.3366 13.7554 45.5303 13.6441C45.724 13.5327 45.9129 13.3535 46.0969 13.1065C46.2519 12.9079 46.402 12.6537 46.5473 12.3437C46.6974 12.029 46.8935 11.5592 47.1357 10.9345L49.7944 4.08429H50.2085L53.3684 11.719C53.6057 12.2953 53.7946 12.707 53.935 12.9539C54.0755 13.2009 54.228 13.3874 54.3927 13.5133C54.5089 13.6005 54.6421 13.6683 54.7922 13.7167C54.9423 13.7603 55.1675 13.799 55.4678 13.8329V14ZM50.9058 9.71409L49.3803 5.95121L47.942 9.71409H50.9058ZM58.9822 5.39912V11.719C58.9822 12.2178 59.0089 12.5859 59.0621 12.8232C59.1203 13.0605 59.2244 13.2566 59.3745 13.4116C59.5101 13.552 59.6627 13.6537 59.8322 13.7167C60.0065 13.7797 60.2317 13.8184 60.5077 13.8329V14H57.1589V13.8329C57.435 13.8184 57.6577 13.7797 57.8272 13.7167C58.0016 13.6537 58.1565 13.552 58.2921 13.4116C58.4423 13.2566 58.544 13.0605 58.5972 12.8232C58.6553 12.581 58.6844 12.213 58.6844 11.719V6.358C58.6844 5.86888 58.6553 5.50566 58.5972 5.26837C58.544 5.02622 58.4423 4.82767 58.2921 4.6727C58.1614 4.53225 58.0088 4.43056 57.8345 4.3676C57.665 4.30464 57.4398 4.2659 57.1589 4.25137V4.08429H59.9556L65.8542 11.6101V6.36527C65.8542 5.86646 65.8252 5.4984 65.7671 5.2611C65.7138 5.0238 65.6121 4.82767 65.462 4.6727C65.3264 4.53225 65.1714 4.43056 64.997 4.3676C64.8275 4.30464 64.6048 4.2659 64.3287 4.25137V4.08429H67.6776V4.25137C67.1933 4.25137 66.8155 4.39181 66.5443 4.6727C66.3942 4.82767 66.2901 5.02622 66.232 5.26837C66.1787 5.50566 66.1521 5.86888 66.1521 6.358V14H65.8252L58.9822 5.39912ZM77.7008 4.08429L77.8243 6.4815L77.6572 6.48876C77.5942 6.08196 77.4901 5.74539 77.3448 5.47903C77.1995 5.21267 76.9889 4.9778 76.7128 4.7744C76.4852 4.6049 76.2164 4.48625 75.9065 4.41845C75.5966 4.34581 75.1849 4.30948 74.6716 4.30948H73.0081V8.66804H73.4439C73.8846 8.66804 74.2163 8.63898 74.4391 8.58087C74.6619 8.52275 74.8435 8.41863 74.9839 8.2685C75.1195 8.12806 75.2188 7.9634 75.2818 7.77453C75.3496 7.58082 75.4053 7.29751 75.4488 6.92462L75.6159 6.93188L75.5869 10.8255H75.4198C75.3762 10.4526 75.3108 10.1524 75.2237 9.92475C75.1413 9.69714 75.0251 9.50343 74.875 9.34361C74.7297 9.18864 74.5408 9.07484 74.3084 9.00219C74.0759 8.92955 73.7805 8.89323 73.4221 8.89323H73.0081V10.5567C73.0081 11.2202 73.025 11.7045 73.0589 12.0096C73.0928 12.3099 73.1582 12.5617 73.255 12.7651C73.4197 13.1138 73.6691 13.3704 74.0033 13.5351C74.3423 13.6949 74.7878 13.7748 75.3399 13.7748C75.921 13.7748 76.4077 13.7022 76.8 13.5569C77.1923 13.4068 77.5119 13.1767 77.7589 12.8668C77.9332 12.6585 78.0737 12.4212 78.1802 12.1549C78.2916 11.8885 78.3933 11.5374 78.4853 11.1016L78.6524 11.1088L78.5579 14H69.8917V13.8329C70.1677 13.8184 70.3905 13.7797 70.56 13.7167C70.7343 13.6537 70.8893 13.552 71.0249 13.4116C71.175 13.2566 71.2767 13.0605 71.33 12.8232C71.3881 12.581 71.4172 12.213 71.4172 11.719V6.36527C71.4172 5.8713 71.3881 5.50566 71.33 5.26837C71.2767 5.02622 71.175 4.82767 71.0249 4.6727C70.8942 4.53225 70.7416 4.43056 70.5673 4.3676C70.3978 4.30464 70.1726 4.2659 69.8917 4.25137V4.08429H77.7008ZM93.194 4.25137C92.9179 4.2659 92.6952 4.30464 92.5257 4.3676C92.361 4.42571 92.2085 4.52499 92.068 4.66543C91.9615 4.76713 91.8816 4.88094 91.8283 5.00685C91.775 5.12792 91.7387 5.28289 91.7193 5.47177C91.6854 5.72359 91.6685 6.02143 91.6685 6.36527V11.719C91.6685 12.2178 91.6975 12.5883 91.7556 12.8305C91.8138 13.0726 91.9179 13.2663 92.068 13.4116C92.3344 13.6683 92.7097 13.8087 93.194 13.8329V14H88.5521V13.8329C88.833 13.8184 89.0582 13.7797 89.2277 13.7167C89.402 13.6489 89.557 13.5472 89.6926 13.4116C89.8427 13.2566 89.9444 13.0605 89.9977 12.8232C90.0558 12.581 90.0849 12.213 90.0849 11.719V5.22478L86.3438 14H86.1912L82.4719 5.35554V11.719C82.4719 12.2178 82.4986 12.5859 82.5518 12.8232C82.61 13.0605 82.7141 13.2566 82.8642 13.4116C82.9998 13.552 83.1524 13.6537 83.3219 13.7167C83.4962 13.7797 83.7214 13.8184 83.9974 13.8329V14H80.6486V13.8329C80.9246 13.8184 81.1474 13.7797 81.3169 13.7167C81.4913 13.6537 81.6462 13.552 81.7818 13.4116C81.932 13.2566 82.0337 13.0605 82.0869 12.8232C82.145 12.581 82.1741 12.213 82.1741 11.719V6.36527C82.1741 6.1425 82.1668 5.93183 82.1523 5.73328C82.1281 5.37491 82.0724 5.1134 81.9852 4.94874C81.8642 4.72113 81.6971 4.55405 81.484 4.44751C81.2758 4.33612 80.9973 4.27074 80.6486 4.25137V4.08429H83.8013L86.9467 11.8498L90.2084 4.08429H93.194V4.25137ZM95.7423 9.11116C95.7423 8.29756 95.9166 7.5445 96.2653 6.85197C96.614 6.15461 97.1225 5.54683 97.7908 5.02865C98.2896 4.64606 98.8272 4.35307 99.4035 4.14967C99.9798 3.94143 100.561 3.83731 101.147 3.83731C101.893 3.83731 102.614 4.00196 103.312 4.33128C104.009 4.65575 104.619 5.11582 105.142 5.71149C105.995 6.68005 106.421 7.7818 106.421 9.01672C106.421 9.6366 106.309 10.2347 106.087 10.811C105.864 11.3873 105.539 11.9127 105.113 12.3873C104.59 12.9782 103.97 13.4358 103.254 13.7603C102.542 14.0847 101.796 14.247 101.016 14.247C100.246 14.247 99.51 14.0896 98.8078 13.7748C98.1056 13.46 97.5002 13.0145 96.9917 12.4382C96.5898 11.9878 96.2798 11.4769 96.0619 10.9054C95.8488 10.3291 95.7423 9.73104 95.7423 9.11116ZM97.5002 9.22012C97.5002 10.6245 97.8828 11.8086 98.648 12.7723C98.9918 13.2034 99.355 13.5181 99.7376 13.7167C100.125 13.9104 100.571 14.0073 101.074 14.0073C101.583 14.0073 102.028 13.9104 102.411 13.7167C102.798 13.523 103.166 13.2082 103.515 12.7723C104.28 11.8038 104.663 10.61 104.663 9.19106C104.663 8.41137 104.556 7.67526 104.343 6.98273C104.135 6.28536 103.839 5.69454 103.457 5.21025C103.147 4.81314 102.801 4.52499 102.418 4.34581C102.04 4.16178 101.592 4.06976 101.074 4.06976C100.561 4.06976 100.115 4.15936 99.7376 4.33854C99.3647 4.51773 99.0185 4.8083 98.6988 5.21025C98.3162 5.68969 98.0208 6.2781 97.8126 6.97547C97.6043 7.67283 97.5002 8.42105 97.5002 9.22012ZM110.785 5.39912V11.719C110.785 12.2178 110.812 12.5859 110.865 12.8232C110.923 13.0605 111.027 13.2566 111.177 13.4116C111.313 13.552 111.466 13.6537 111.635 13.7167C111.809 13.7797 112.035 13.8184 112.311 13.8329V14H108.962V13.8329C109.238 13.8184 109.461 13.7797 109.63 13.7167C109.804 13.6537 109.959 13.552 110.095 13.4116C110.245 13.2566 110.347 13.0605 110.4 12.8232C110.458 12.581 110.487 12.213 110.487 11.719V6.358C110.487 5.86888 110.458 5.50566 110.4 5.26837C110.347 5.02622 110.245 4.82767 110.095 4.6727C109.964 4.53225 109.812 4.43056 109.637 4.3676C109.468 4.30464 109.243 4.2659 108.962 4.25137V4.08429H111.758L117.657 11.6101V6.36527C117.657 5.86646 117.628 5.4984 117.57 5.2611C117.517 5.0238 117.415 4.82767 117.265 4.6727C117.129 4.53225 116.974 4.43056 116.8 4.3676C116.63 4.30464 116.408 4.2659 116.132 4.25137V4.08429H119.48V4.25137C118.996 4.25137 118.618 4.39181 118.347 4.6727C118.197 4.82767 118.093 5.02622 118.035 5.26837C117.982 5.50566 117.955 5.86888 117.955 6.358V14H117.628L110.785 5.39912ZM131.806 14H127.034V13.8329C127.465 13.7942 127.765 13.7215 127.935 13.615C128.235 13.4261 128.385 13.1646 128.385 12.8305C128.385 12.6319 128.317 12.3655 128.182 12.0314L128.058 11.7263L127.361 10.0119H124.164L123.787 11.0144L123.605 11.4648C123.387 11.9975 123.278 12.4164 123.278 12.7215C123.278 12.9007 123.317 13.0678 123.394 13.2227C123.477 13.3777 123.586 13.5036 123.721 13.6005C123.91 13.7312 124.152 13.8087 124.448 13.8329V14H121.193V13.8329C121.45 13.8184 121.675 13.7554 121.869 13.6441C122.063 13.5327 122.251 13.3535 122.436 13.1065C122.59 12.9079 122.741 12.6537 122.886 12.3437C123.036 12.029 123.232 11.5592 123.474 10.9345L126.133 4.08429H126.547L129.707 11.719C129.944 12.2953 130.133 12.707 130.274 12.9539C130.414 13.2009 130.567 13.3874 130.731 13.5133C130.848 13.6005 130.981 13.6683 131.131 13.7167C131.281 13.7603 131.506 13.799 131.806 13.8329V14ZM127.244 9.71409L125.719 5.95121L124.281 9.71409H127.244ZM47.1793 20.3991V26.719C47.1793 27.2178 47.2059 27.5859 47.2592 27.8232C47.3173 28.0605 47.4214 28.2566 47.5715 28.4116C47.7071 28.552 47.8597 28.6537 48.0292 28.7167C48.2035 28.7797 48.4287 28.8184 48.7048 28.8329V29H45.3559V28.8329C45.632 28.8184 45.8548 28.7797 46.0243 28.7167C46.1986 28.6537 46.3536 28.552 46.4892 28.4116C46.6393 28.2566 46.741 28.0605 46.7943 27.8232C46.8524 27.581 46.8814 27.213 46.8814 26.719V21.358C46.8814 20.8689 46.8524 20.5057 46.7943 20.2684C46.741 20.0262 46.6393 19.8277 46.4892 19.6727C46.3584 19.5323 46.2059 19.4306 46.0315 19.3676C45.862 19.3046 45.6368 19.2659 45.3559 19.2514V19.0843H48.1527L54.0513 26.6101V21.3653C54.0513 20.8665 54.0222 20.4984 53.9641 20.2611C53.9108 20.0238 53.8091 19.8277 53.659 19.6727C53.5234 19.5323 53.3684 19.4306 53.1941 19.3676C53.0246 19.3046 52.8018 19.2659 52.5258 19.2514V19.0843H55.8746V19.2514C55.3903 19.2514 55.0126 19.3918 54.7414 19.6727C54.5912 19.8277 54.4871 20.0262 54.429 20.2684C54.3757 20.5057 54.3491 20.8689 54.3491 21.358V29H54.0222L47.1793 20.3991ZM68.2006 29H63.428V28.8329C63.859 28.7942 64.1592 28.7215 64.3287 28.615C64.629 28.4261 64.7791 28.1646 64.7791 27.8305C64.7791 27.6319 64.7113 27.3655 64.5757 27.0314L64.4522 26.7263L63.7549 25.0119H60.5586L60.1808 26.0144L59.9992 26.4648C59.7813 26.9975 59.6723 27.4164 59.6723 27.7215C59.6723 27.9007 59.7111 28.0678 59.7886 28.2227C59.8709 28.3777 59.9799 28.5036 60.1155 28.6005C60.3043 28.7312 60.5465 28.8087 60.8419 28.8329V29H57.5875V28.8329C57.8442 28.8184 58.0694 28.7554 58.2631 28.6441C58.4568 28.5327 58.6457 28.3535 58.8297 28.1065C58.9847 27.9079 59.1348 27.6537 59.2801 27.3437C59.4302 27.029 59.6263 26.5592 59.8685 25.9345L62.5272 19.0843H62.9413L66.1012 26.719C66.3385 27.2953 66.5274 27.707 66.6678 27.9539C66.8083 28.2009 66.9608 28.3874 67.1255 28.5133C67.2417 28.6005 67.3749 28.6683 67.525 28.7167C67.6751 28.7603 67.9003 28.799 68.2006 28.8329V29ZM63.6386 24.7141L62.1131 20.9512L60.6748 24.7141H63.6386ZM73.8144 19.3095C73.5093 19.3095 73.1824 19.3192 72.8337 19.3385C72.0879 19.3773 71.531 19.4717 71.1629 19.6218C70.7997 19.772 70.4995 20.0311 70.2622 20.3991C70.0442 20.7381 69.8772 21.1982 69.7609 21.7793L69.5939 21.7648L69.7246 19.0843H79.5532L79.6839 21.7648L79.5168 21.7793C79.3861 21.1062 79.1803 20.5977 78.8994 20.2538C78.6233 19.9052 78.219 19.6557 77.6862 19.5056C77.2359 19.3749 76.4731 19.3095 75.398 19.3095V26.719C75.398 27.213 75.4246 27.581 75.4779 27.8232C75.536 28.0605 75.6401 28.2566 75.7903 28.4116C75.9259 28.552 76.0784 28.6537 76.2479 28.7167C76.4223 28.7797 76.6475 28.8184 76.9235 28.8329V29H72.2816V28.8329C72.5625 28.8184 72.7877 28.7797 72.9572 28.7167C73.1316 28.6537 73.2865 28.552 73.4221 28.4116C73.5722 28.2566 73.6739 28.0605 73.7272 27.8232C73.7853 27.5859 73.8144 27.2178 73.8144 26.719V19.3095ZM86.1331 19.0843V19.2514C85.8571 19.2659 85.6319 19.3046 85.4575 19.3676C85.2832 19.4306 85.1306 19.5323 84.9999 19.6727C84.8401 19.8374 84.7335 20.0408 84.6803 20.2829C84.6318 20.525 84.6076 20.9415 84.6076 21.5323V25.6439C84.6076 26.3122 84.6318 26.7965 84.6803 27.0968C84.7335 27.3922 84.8377 27.6658 84.9926 27.9176C85.2251 28.3002 85.5108 28.5787 85.8498 28.753C86.1937 28.9225 86.6247 29.0073 87.1428 29.0073C87.6465 29.0073 88.1259 28.9322 88.5812 28.7821C89.0412 28.6271 89.4238 28.414 89.7289 28.1428C89.9178 27.9733 90.0558 27.7893 90.143 27.5907C90.235 27.3922 90.2955 27.1404 90.3246 26.8353C90.344 26.6367 90.3536 26.1669 90.3536 25.426V21.3653C90.3536 20.8665 90.3246 20.4984 90.2665 20.2611C90.2132 20.0238 90.1115 19.8277 89.9614 19.6727C89.8258 19.5323 89.6708 19.4306 89.4965 19.3676C89.327 19.3046 89.1042 19.2659 88.8282 19.2514V19.0843H92.177V19.2514C91.9009 19.2659 91.6757 19.3046 91.5014 19.3676C91.3319 19.4306 91.1794 19.5323 91.0438 19.6727C90.8936 19.8277 90.7895 20.0262 90.7314 20.2684C90.6781 20.5057 90.6515 20.8713 90.6515 21.3653V25.949C90.6515 26.627 90.5982 27.1282 90.4917 27.4527C90.39 27.7723 90.1841 28.0653 89.8742 28.3317C89.1672 28.9419 88.1574 29.247 86.845 29.247C85.4745 29.247 84.4648 28.9588 83.8158 28.3825C83.3945 28.0145 83.1427 27.5302 83.0603 26.9297C83.0313 26.7166 83.0167 26.3316 83.0167 25.7747V21.3653C83.0167 20.8665 82.9901 20.4984 82.9368 20.2611C82.8836 20.0238 82.7795 19.8277 82.6245 19.6727C82.4937 19.5323 82.3412 19.4306 82.1668 19.3676C81.9973 19.3046 81.7721 19.2659 81.4913 19.2514V19.0843H86.1331ZM97.3985 24.1475V26.719C97.3985 27.213 97.4252 27.581 97.4784 27.8232C97.5365 28.0605 97.6407 28.2566 97.7908 28.4116C97.9215 28.5472 98.0717 28.6489 98.2412 28.7167C98.4155 28.7797 98.6431 28.8184 98.924 28.8329V29H94.2822V28.8329C94.563 28.8184 94.7882 28.7797 94.9577 28.7167C95.1321 28.6489 95.2846 28.5472 95.4154 28.4116C95.5704 28.2566 95.6745 28.0605 95.7277 27.8232C95.781 27.5859 95.8077 27.2178 95.8077 26.719V21.3653C95.8077 20.8665 95.781 20.4984 95.7277 20.2611C95.6745 20.0238 95.5704 19.8277 95.4154 19.6727C95.2846 19.5323 95.1321 19.4306 94.9577 19.3676C94.7834 19.3046 94.5582 19.2659 94.2822 19.2514V19.0843H97.7835C98.3695 19.0843 98.7545 19.0867 98.9385 19.0916C99.6892 19.1255 100.278 19.2272 100.704 19.3967C101.183 19.5904 101.554 19.8809 101.815 20.2684C102.082 20.651 102.215 21.0965 102.215 21.605C102.215 22.3605 101.929 22.9658 101.358 23.4211C101.183 23.5567 100.989 23.668 100.776 23.7552C100.568 23.8424 100.287 23.9247 99.9337 24.0022C100.224 24.1233 100.44 24.2492 100.58 24.3799C100.692 24.4816 100.793 24.61 100.885 24.7649C100.977 24.9151 101.115 25.1838 101.299 25.5713C101.73 26.4575 102.055 27.1065 102.273 27.5181C102.496 27.9249 102.682 28.2203 102.832 28.4043C102.953 28.5545 103.069 28.6586 103.181 28.7167C103.297 28.7748 103.454 28.8136 103.653 28.8329V29H101.241C101.12 28.7336 101.043 28.5641 101.009 28.4915L100.5 27.3365C100.195 26.644 99.8877 26.0313 99.5778 25.4986C99.2679 24.9708 98.9846 24.61 98.7279 24.4163C98.5971 24.3194 98.4567 24.2516 98.3066 24.2129C98.1564 24.1693 97.9724 24.1475 97.7545 24.1475H97.3985ZM97.3985 23.9877H97.6746C98.2751 23.9877 98.7037 23.9538 98.9603 23.886C99.2219 23.8182 99.4664 23.6777 99.694 23.4646C100.203 22.9804 100.457 22.3798 100.457 21.6631C100.457 21.2805 100.382 20.9221 100.232 20.588C100.086 20.249 99.8829 19.9705 99.6214 19.7526C99.418 19.5879 99.1758 19.4741 98.895 19.4112C98.6141 19.3434 98.2145 19.3095 97.6964 19.3095H97.3985V23.9877ZM115.514 29H110.742V28.8329C111.173 28.7942 111.473 28.7215 111.642 28.615C111.943 28.4261 112.093 28.1646 112.093 27.8305C112.093 27.6319 112.025 27.3655 111.889 27.0314L111.766 26.7263L111.068 25.0119H107.872L107.494 26.0144L107.313 26.4648C107.095 26.9975 106.986 27.4164 106.986 27.7215C106.986 27.9007 107.025 28.0678 107.102 28.2227C107.184 28.3777 107.293 28.5036 107.429 28.6005C107.618 28.7312 107.86 28.8087 108.155 28.8329V29H104.901V28.8329C105.158 28.8184 105.383 28.7554 105.577 28.6441C105.77 28.5327 105.959 28.3535 106.143 28.1065C106.298 27.9079 106.448 27.6537 106.594 27.3437C106.744 27.029 106.94 26.5592 107.182 25.9345L109.841 19.0843H110.255L113.415 26.719C113.652 27.2953 113.841 27.707 113.981 27.9539C114.122 28.2009 114.274 28.3874 114.439 28.5133C114.555 28.6005 114.688 28.6683 114.839 28.7167C114.989 28.7603 115.214 28.799 115.514 28.8329V29ZM110.952 24.7141L109.427 20.9512L107.988 24.7141H110.952ZM127.534 29.2325C127.485 28.9952 127.461 28.7433 127.461 28.477C127.103 28.7094 126.764 28.8765 126.444 28.9782C126.129 29.0799 125.79 29.1308 125.427 29.1308C124.691 29.1308 124.061 28.9104 123.538 28.4697C123.204 28.1888 122.947 27.8377 122.768 27.4164C122.589 26.9902 122.499 26.5253 122.499 26.0217C122.499 25.4889 122.596 24.9974 122.79 24.547C122.984 24.0918 123.255 23.714 123.604 23.4138C124.156 22.9489 124.812 22.7164 125.572 22.7164C125.94 22.7164 126.255 22.7697 126.517 22.8762C126.778 22.9828 127.083 23.1765 127.432 23.4574V20.7623C127.432 20.2345 127.345 19.8543 127.17 19.6218C126.996 19.3894 126.708 19.2732 126.306 19.2732V19.0988L128.521 18.8155V27.2348C128.521 27.782 128.609 28.1719 128.783 28.4043C128.957 28.6368 129.245 28.753 129.647 28.753V28.9346L127.534 29.2325ZM127.432 25.8618C127.432 25.1887 127.403 24.685 127.345 24.3509C127.287 24.0119 127.182 23.7358 127.032 23.5228C126.902 23.3387 126.725 23.191 126.502 23.0796C126.284 22.9682 126.059 22.9126 125.826 22.9126C125.308 22.9126 124.86 23.1547 124.483 23.639C124.255 23.9296 124.076 24.2758 123.945 24.6778C123.819 25.0797 123.756 25.4938 123.756 25.92C123.756 26.3364 123.817 26.7457 123.938 27.1476C124.059 27.5447 124.223 27.8861 124.432 28.1719C124.795 28.6658 125.24 28.9128 125.768 28.9128C126.02 28.9128 126.26 28.8499 126.488 28.724C126.715 28.598 126.899 28.4237 127.04 28.2009C127.185 27.9685 127.287 27.6827 127.345 27.3437C127.403 26.9999 127.432 26.5059 127.432 25.8618ZM133.162 27.3583C133.404 27.3583 133.61 27.4454 133.779 27.6198C133.954 27.7893 134.041 27.9975 134.041 28.2445C134.041 28.4867 133.954 28.6949 133.779 28.8692C133.61 29.0387 133.404 29.1235 133.162 29.1235C132.92 29.1235 132.712 29.0387 132.537 28.8692C132.368 28.6949 132.283 28.4867 132.283 28.2445C132.283 27.9975 132.368 27.7893 132.537 27.6198C132.712 27.4454 132.92 27.3583 133.162 27.3583ZM136.909 25.9345C136.909 25.1499 137.199 24.4502 137.781 23.8351C138.488 23.0893 139.333 22.7164 140.316 22.7164C141.299 22.7164 142.141 23.0893 142.844 23.8351C143.425 24.455 143.715 25.1572 143.715 25.9417C143.715 26.7166 143.439 27.4067 142.887 28.0121C142.209 28.7579 141.352 29.1308 140.316 29.1308C139.279 29.1308 138.42 28.7579 137.737 28.0121C137.471 27.7215 137.265 27.397 137.119 27.0387C136.979 26.6803 136.909 26.3122 136.909 25.9345ZM138.231 25.8546C138.231 26.6972 138.42 27.4115 138.798 27.9975C139.224 28.6513 139.744 28.9782 140.359 28.9782C140.621 28.9782 140.875 28.9056 141.122 28.7603C141.369 28.615 141.582 28.4116 141.761 28.1501C141.95 27.8789 142.103 27.5399 142.219 27.1331C142.335 26.7214 142.393 26.3243 142.393 25.9417C142.393 25.5446 142.33 25.1451 142.204 24.7431C142.083 24.3363 141.919 23.9877 141.71 23.6971C141.313 23.1499 140.827 22.8762 140.25 22.8762C139.703 22.8762 139.231 23.1644 138.834 23.7407C138.432 24.317 138.231 25.0216 138.231 25.8546ZM147.47 27.3583C147.712 27.3583 147.918 27.4454 148.087 27.6198C148.261 27.7893 148.349 27.9975 148.349 28.2445C148.349 28.4867 148.261 28.6949 148.087 28.8692C147.918 29.0387 147.712 29.1235 147.47 29.1235C147.227 29.1235 147.019 29.0387 146.845 28.8692C146.675 28.6949 146.591 28.4867 146.591 28.2445C146.591 27.9975 146.675 27.7893 146.845 27.6198C147.019 27.4454 147.227 27.3583 147.47 27.3583ZM151.216 25.9345C151.216 25.1499 151.507 24.4502 152.088 23.8351C152.795 23.0893 153.64 22.7164 154.623 22.7164C155.607 22.7164 156.449 23.0893 157.151 23.8351C157.733 24.455 158.023 25.1572 158.023 25.9417C158.023 26.7166 157.747 27.4067 157.195 28.0121C156.517 28.7579 155.66 29.1308 154.623 29.1308C153.587 29.1308 152.727 28.7579 152.045 28.0121C151.778 27.7215 151.572 27.397 151.427 27.0387C151.287 26.6803 151.216 26.3122 151.216 25.9345ZM152.539 25.8546C152.539 26.6972 152.727 27.4115 153.105 27.9975C153.531 28.6513 154.052 28.9782 154.667 28.9782C154.929 28.9782 155.183 28.9056 155.43 28.7603C155.677 28.615 155.89 28.4116 156.069 28.1501C156.258 27.8789 156.41 27.5399 156.527 27.1331C156.643 26.7214 156.701 26.3243 156.701 25.9417C156.701 25.5446 156.638 25.1451 156.512 24.7431C156.391 24.3363 156.226 23.9877 156.018 23.6971C155.621 23.1499 155.134 22.8762 154.558 22.8762C154.011 22.8762 153.539 23.1644 153.142 23.7407C152.74 24.317 152.539 25.0216 152.539 25.8546ZM161.777 27.3583C162.019 27.3583 162.225 27.4454 162.395 27.6198C162.569 27.7893 162.656 27.9975 162.656 28.2445C162.656 28.4867 162.569 28.6949 162.395 28.8692C162.225 29.0387 162.019 29.1235 161.777 29.1235C161.535 29.1235 161.327 29.0387 161.153 28.8692C160.983 28.6949 160.898 28.4867 160.898 28.2445C160.898 27.9975 160.983 27.7893 161.153 27.6198C161.327 27.4454 161.535 27.3583 161.777 27.3583Z" fill="black"/>
</svg>
